<mxfile host="Electron" agent="Mozilla/5.0 (Windows NT 10.0; Win64; x64) AppleWebKit/537.36 (KHTML, like Gecko) draw.io/24.2.5 Chrome/120.0.6099.109 Electron/28.1.0 Safari/537.36" modified="2024-10-11T12:43:40.504Z" version="24.2.5" etag="_3blpaBKF3272UVLtbYo" type="device">
  <diagram name="Seite-1" id="rICtBro_JCOo9i1cH8Zr">
    <mxGraphModel dx="1366" dy="842" grid="1" gridSize="10" guides="1" tooltips="1" connect="1" arrows="1" fold="1" page="1" pageScale="1" pageWidth="827" pageHeight="1169" math="0" shadow="0">
      <root>
        <mxCell id="0" />
        <mxCell id="1" parent="0" />
        <mxCell id="2Zf8qn4l9Id9H0t0boWz-14" value="" style="edgeStyle=orthogonalEdgeStyle;rounded=0;orthogonalLoop=1;jettySize=auto;html=1;" parent="1" source="2Zf8qn4l9Id9H0t0boWz-1" target="2Zf8qn4l9Id9H0t0boWz-13" edge="1">
          <mxGeometry relative="1" as="geometry" />
        </mxCell>
        <mxCell id="2Zf8qn4l9Id9H0t0boWz-1" value="Elderly person&lt;div&gt;&lt;br&gt;&lt;/div&gt;" style="shape=umlActor;verticalLabelPosition=bottom;verticalAlign=top;html=1;" parent="1" vertex="1">
          <mxGeometry x="710" y="160" width="30" height="60" as="geometry" />
        </mxCell>
        <mxCell id="2Zf8qn4l9Id9H0t0boWz-16" value="" style="edgeStyle=orthogonalEdgeStyle;rounded=0;orthogonalLoop=1;jettySize=auto;html=1;entryX=0;entryY=0.5;entryDx=0;entryDy=0;" parent="1" source="2Zf8qn4l9Id9H0t0boWz-13" edge="1">
          <mxGeometry relative="1" as="geometry">
            <mxPoint x="1040" y="190" as="targetPoint" />
          </mxGeometry>
        </mxCell>
        <mxCell id="2Zf8qn4l9Id9H0t0boWz-13" value="Device registers a strong enough shock&lt;div&gt;-----------------------------&lt;/div&gt;&lt;div&gt;Will send an alarm&lt;/div&gt;" style="rounded=1;whiteSpace=wrap;html=1;" parent="1" vertex="1">
          <mxGeometry x="840" y="160" width="120" height="60" as="geometry" />
        </mxCell>
        <mxCell id="_SDlMv50SxPuYoDYCSHU-37" style="edgeStyle=orthogonalEdgeStyle;rounded=0;orthogonalLoop=1;jettySize=auto;html=1;entryX=0;entryY=0.5;entryDx=0;entryDy=0;" edge="1" parent="1" source="_SDlMv50SxPuYoDYCSHU-2" target="_SDlMv50SxPuYoDYCSHU-40">
          <mxGeometry relative="1" as="geometry">
            <mxPoint x="1250" y="310" as="targetPoint" />
          </mxGeometry>
        </mxCell>
        <mxCell id="_SDlMv50SxPuYoDYCSHU-2" value="Send alarm" style="whiteSpace=wrap;html=1;rounded=1;" vertex="1" parent="1">
          <mxGeometry x="1040" y="290" width="120" height="60" as="geometry" />
        </mxCell>
        <mxCell id="_SDlMv50SxPuYoDYCSHU-8" value="Care worker" style="shape=umlActor;verticalLabelPosition=bottom;verticalAlign=top;html=1;outlineConnect=0;" vertex="1" parent="1">
          <mxGeometry x="1600" y="470" width="30" height="60" as="geometry" />
        </mxCell>
        <mxCell id="_SDlMv50SxPuYoDYCSHU-10" value="Neighbor" style="shape=umlActor;verticalLabelPosition=bottom;verticalAlign=top;html=1;outlineConnect=0;" vertex="1" parent="1">
          <mxGeometry x="1600" y="290" width="30" height="60" as="geometry" />
        </mxCell>
        <mxCell id="_SDlMv50SxPuYoDYCSHU-25" value="" style="edgeStyle=orthogonalEdgeStyle;rounded=0;orthogonalLoop=1;jettySize=auto;html=1;endArrow=classic;endFill=1;dashed=1;" edge="1" parent="1" source="_SDlMv50SxPuYoDYCSHU-13" target="_SDlMv50SxPuYoDYCSHU-24">
          <mxGeometry relative="1" as="geometry" />
        </mxCell>
        <mxCell id="_SDlMv50SxPuYoDYCSHU-39" style="edgeStyle=orthogonalEdgeStyle;rounded=0;orthogonalLoop=1;jettySize=auto;html=1;" edge="1" parent="1" source="_SDlMv50SxPuYoDYCSHU-13" target="_SDlMv50SxPuYoDYCSHU-2">
          <mxGeometry relative="1" as="geometry" />
        </mxCell>
        <mxCell id="_SDlMv50SxPuYoDYCSHU-13" value="Monitor button press" style="rounded=1;whiteSpace=wrap;html=1;" vertex="1" parent="1">
          <mxGeometry x="1040" y="160" width="120" height="60" as="geometry" />
        </mxCell>
        <mxCell id="_SDlMv50SxPuYoDYCSHU-46" style="edgeStyle=orthogonalEdgeStyle;rounded=0;orthogonalLoop=1;jettySize=auto;html=1;dashed=1;endArrow=none;endFill=0;" edge="1" parent="1" source="_SDlMv50SxPuYoDYCSHU-21">
          <mxGeometry relative="1" as="geometry">
            <mxPoint x="1410" y="410" as="targetPoint" />
          </mxGeometry>
        </mxCell>
        <mxCell id="_SDlMv50SxPuYoDYCSHU-21" value="if no response" style="rounded=1;whiteSpace=wrap;html=1;" vertex="1" parent="1">
          <mxGeometry x="1180" y="380" width="120" height="60" as="geometry" />
        </mxCell>
        <mxCell id="_SDlMv50SxPuYoDYCSHU-24" value="Reset the device and not send out an alarm" style="whiteSpace=wrap;html=1;rounded=1;" vertex="1" parent="1">
          <mxGeometry x="1271" y="160" width="120" height="60" as="geometry" />
        </mxCell>
        <mxCell id="_SDlMv50SxPuYoDYCSHU-28" style="edgeStyle=orthogonalEdgeStyle;rounded=0;orthogonalLoop=1;jettySize=auto;html=1;dashed=1;endArrow=none;endFill=0;" edge="1" parent="1" source="_SDlMv50SxPuYoDYCSHU-27">
          <mxGeometry relative="1" as="geometry">
            <mxPoint x="1220" y="190" as="targetPoint" />
          </mxGeometry>
        </mxCell>
        <mxCell id="_SDlMv50SxPuYoDYCSHU-27" value="If pressed quick enough" style="rounded=1;whiteSpace=wrap;html=1;" vertex="1" parent="1">
          <mxGeometry x="1160" y="30" width="120" height="60" as="geometry" />
        </mxCell>
        <mxCell id="_SDlMv50SxPuYoDYCSHU-45" style="edgeStyle=orthogonalEdgeStyle;rounded=0;orthogonalLoop=1;jettySize=auto;html=1;entryX=0.5;entryY=0;entryDx=0;entryDy=0;dashed=1;" edge="1" parent="1" source="_SDlMv50SxPuYoDYCSHU-40" target="_SDlMv50SxPuYoDYCSHU-41">
          <mxGeometry relative="1" as="geometry" />
        </mxCell>
        <mxCell id="_SDlMv50SxPuYoDYCSHU-40" value="Notify the neighbor" style="rounded=1;whiteSpace=wrap;html=1;" vertex="1" parent="1">
          <mxGeometry x="1350" y="290" width="120" height="60" as="geometry" />
        </mxCell>
        <mxCell id="_SDlMv50SxPuYoDYCSHU-41" value="Notify the care worker" style="rounded=1;whiteSpace=wrap;html=1;" vertex="1" parent="1">
          <mxGeometry x="1350" y="470" width="120" height="60" as="geometry" />
        </mxCell>
        <mxCell id="_SDlMv50SxPuYoDYCSHU-42" style="edgeStyle=orthogonalEdgeStyle;rounded=0;orthogonalLoop=1;jettySize=auto;html=1;entryX=0.5;entryY=0.5;entryDx=0;entryDy=0;entryPerimeter=0;" edge="1" parent="1" source="_SDlMv50SxPuYoDYCSHU-40" target="_SDlMv50SxPuYoDYCSHU-10">
          <mxGeometry relative="1" as="geometry" />
        </mxCell>
        <mxCell id="_SDlMv50SxPuYoDYCSHU-44" style="edgeStyle=orthogonalEdgeStyle;rounded=0;orthogonalLoop=1;jettySize=auto;html=1;entryX=0.5;entryY=0.5;entryDx=0;entryDy=0;entryPerimeter=0;" edge="1" parent="1" source="_SDlMv50SxPuYoDYCSHU-41" target="_SDlMv50SxPuYoDYCSHU-8">
          <mxGeometry relative="1" as="geometry" />
        </mxCell>
      </root>
    </mxGraphModel>
  </diagram>
</mxfile>
